<?xml version="1.0" encoding="UTF-8" standalone="no"?>
<!-- Created with Inkscape (http://www.inkscape.org/) -->

<svg
   xmlns:dc="http://purl.org/dc/elements/1.1/"
   xmlns:cc="http://creativecommons.org/ns#"
   xmlns:rdf="http://www.w3.org/1999/02/22-rdf-syntax-ns#"
   xmlns:svg="http://www.w3.org/2000/svg"
   xmlns="http://www.w3.org/2000/svg"
   xmlns:sodipodi="http://sodipodi.sourceforge.net/DTD/sodipodi-0.dtd"
   xmlns:inkscape="http://www.inkscape.org/namespaces/inkscape"
   version="1.1"
   id="svg12"
   width="64"
   height="64"
   viewBox="0 0 64 64"
   sodipodi:docname="fig04ferz.svg"
   inkscape:version="0.92.4 (5da689c313, 2019-01-14)">
  <metadata
     id="metadata18">
    <rdf:RDF>
      <cc:Work
         rdf:about="">
        <dc:format>image/svg+xml</dc:format>
        <dc:type
           rdf:resource="http://purl.org/dc/dcmitype/StillImage" />
        <dc:title></dc:title>
      </cc:Work>
    </rdf:RDF>
  </metadata>
  <defs
     id="defs16" />
  <sodipodi:namedview
     pagecolor="#ffffff"
     bordercolor="#666666"
     borderopacity="1"
     objecttolerance="10"
     gridtolerance="10"
     guidetolerance="10"
     inkscape:pageopacity="0"
     inkscape:pageshadow="2"
     inkscape:window-width="1280"
     inkscape:window-height="997"
     id="namedview14"
     showgrid="false"
     inkscape:zoom="8"
     inkscape:cx="49.592492"
     inkscape:cy="4.1818545"
     inkscape:window-x="2551"
     inkscape:window-y="-9"
     inkscape:window-maximized="1"
     inkscape:current-layer="svg12" />
  <path
     style="opacity:0.83499995;fill:#ffffff;fill-opacity:1;stroke:#000000;stroke-width:0.79157019;stroke-miterlimit:4;stroke-dasharray:none;stroke-opacity:1"
     d="M 16.396484 8.3964844 L 16.396484 55.603516 L 47.603516 55.603516 L 47.603516 8.3964844 L 16.396484 8.3964844 z "
     id="rect8" />
  <path
     style="fill:none;stroke:#000000;stroke-width:0.77153516px;stroke-linecap:butt;stroke-linejoin:miter;stroke-opacity:1"
     d="M 0.00230906,31.614239 63.997691,31.385761"
     id="path816"
     inkscape:connector-curvature="0" />
  <path
     style="fill:none;stroke:#000000;stroke-width:0.85823113px;stroke-linecap:butt;stroke-linejoin:miter;stroke-opacity:1"
     d="M 32.429114,63.999049 32.570886,9.3855284e-4"
     id="path818"
     inkscape:connector-curvature="0" />
  <path
     style="opacity:0.83499995;fill:#808080;fill-opacity:1;stroke:#a30000;stroke-width:0.2;stroke-miterlimit:4;stroke-dasharray:none;stroke-opacity:1"
     d="m 32.75,10.375 c -0.862945,0 -1.5625,0.615608 -1.5625,1.375 6.98e-4,0.67268 0.554345,1.246159 1.308594,1.355469 L 29.25,37.875 20.953125,14.189453 C 21.611368,14.013927 22.06177,13.480263 22.0625,12.875 22.0625,12.115608 21.362945,11.5 20.5,11.5 c -0.862945,0 -1.5625,0.615608 -1.5625,1.375 0,0.759392 0.699555,1.375 1.5625,1.375 0.06797,-6.64e-4 0.135827,-0.0052 0.203125,-0.01367 L 22.625,38.375 9.1835938,17.388672 C 9.6148114,17.133842 9.8739335,16.707095 9.875,16.25 c 0,-0.759392 -0.6995551,-1.375 -1.5625,-1.375 -0.8629449,0 -1.5625,0.615608 -1.5625,1.375 0,0.759392 0.6995551,1.375 1.5625,1.375 0.1749872,-5.46e-4 0.3486272,-0.02696 0.5136719,-0.07813 l 10.7304691,31.462891 -0.535157,0.351562 c 0,0 5.8e-4,-0.02558 0,0 l -0.125,5.517578 c -0.0094,0.413047 0.332941,0.746094 0.746094,0.746094 h 25.861328 c 0.413153,0 0.746094,-0.332941 0.746094,-0.746094 v -5.736328 c 0,-0.295559 -0.173723,-0.545176 -0.421875,-0.666016 l 10.845703,-30.75 c 0.217373,0.09692 0.457492,0.14775 0.701172,0.148438 0.862945,0 1.5625,-0.615608 1.5625,-1.375 0,-0.759392 -0.699555,-1.375 -1.5625,-1.375 -0.862945,0 -1.5625,0.615608 -1.5625,1.375 1.66e-4,0.443145 0.243024,0.859056 0.652344,1.117188 L 41.859375,39.34375 45.701172,14.615234 c 0.05769,0.0061 0.115724,0.0094 0.173828,0.0098 0.862945,0 1.5625,-0.615608 1.5625,-1.375 0,-0.759392 -0.699555,-1.375 -1.5625,-1.375 -0.862945,0 -1.5625,0.615608 -1.5625,1.375 3.55e-4,0.614829 0.46449,1.154725 1.136719,1.322266 L 36.375,37.375 32.773438,13.125 c 0.853778,-0.01127 1.539158,-0.623591 1.539062,-1.375 0,-0.759392 -0.699555,-1.375 -1.5625,-1.375 z"
     id="rect923"
     inkscape:connector-curvature="0"
     sodipodi:nodetypes="scccccsscccccssccccsssssscccsscccccsscccccs" />
</svg>
