<?xml version="1.0" encoding="UTF-8" standalone="no"?>
<!-- Created with Inkscape (http://www.inkscape.org/) -->

<svg
   xmlns:dc="http://purl.org/dc/elements/1.1/"
   xmlns:cc="http://creativecommons.org/ns#"
   xmlns:rdf="http://www.w3.org/1999/02/22-rdf-syntax-ns#"
   xmlns:svg="http://www.w3.org/2000/svg"
   xmlns="http://www.w3.org/2000/svg"
   xmlns:sodipodi="http://sodipodi.sourceforge.net/DTD/sodipodi-0.dtd"
   xmlns:inkscape="http://www.inkscape.org/namespaces/inkscape"
   version="1.1"
   id="svg12"
   width="64"
   height="64"
   viewBox="0 0 64 64"
   sodipodi:docname="fig02ladia.svg"
   inkscape:version="0.92.4 (5da689c313, 2019-01-14)">
  <metadata
     id="metadata18">
    <rdf:RDF>
      <cc:Work
         rdf:about="">
        <dc:format>image/svg+xml</dc:format>
        <dc:type
           rdf:resource="http://purl.org/dc/dcmitype/StillImage" />
        <dc:title></dc:title>
      </cc:Work>
    </rdf:RDF>
  </metadata>
  <defs
     id="defs16" />
  <sodipodi:namedview
     pagecolor="#ffffff"
     bordercolor="#666666"
     borderopacity="1"
     objecttolerance="10"
     gridtolerance="10"
     guidetolerance="10"
     inkscape:pageopacity="0"
     inkscape:pageshadow="2"
     inkscape:window-width="1280"
     inkscape:window-height="997"
     id="namedview14"
     showgrid="false"
     inkscape:zoom="16"
     inkscape:cx="34.878185"
     inkscape:cy="30.128658"
     inkscape:window-x="2551"
     inkscape:window-y="-9"
     inkscape:window-maximized="1"
     inkscape:current-layer="svg12" />
  <path
     style="opacity:0.83499995;fill:#ffffff;fill-opacity:1;stroke:#000000;stroke-width:0.79157019;stroke-miterlimit:4;stroke-dasharray:none;stroke-opacity:1"
     d="M 16.396484 8.3964844 L 16.396484 55.603516 L 47.603516 55.603516 L 47.603516 8.3964844 L 16.396484 8.3964844 z "
     id="rect8" />
  <path
     style="fill:none;stroke:#000000;stroke-width:0.77153516px;stroke-linecap:butt;stroke-linejoin:miter;stroke-opacity:1"
     d="M 0.00230906,31.614239 63.997691,31.385761"
     id="path816"
     inkscape:connector-curvature="0" />
  <path
     style="fill:none;stroke:#000000;stroke-width:0.85823113px;stroke-linecap:butt;stroke-linejoin:miter;stroke-opacity:1"
     d="M 32.429114,63.999049 32.570886,9.3855284e-4"
     id="path818"
     inkscape:connector-curvature="0" />
  <path
     style="opacity:0.83499995;fill:#808080;fill-opacity:1;stroke:#a30000;stroke-width:0.2042919;stroke-miterlimit:4;stroke-dasharray:none;stroke-opacity:1"
     d="m 24.220703,17.136719 c -0.56339,0 -1.015625,0.454188 -1.015625,1.017578 v 5.589844 c 0,0.563389 0.452235,1.017578 1.015625,1.017578 l 1.019531,0.0078 -0.08789,-0.002 -3.583985,23.302734 h -2.041015 c -0.413153,0 -0.746094,0.332942 -0.746094,0.746094 v 5.826172 c 0,0.413153 0.332941,0.744141 0.746094,0.744141 h 25.757812 c 0.413153,0 0.746094,-0.330988 0.746094,-0.744141 v -5.826172 c 0,-0.413152 -0.332941,-0.859375 -0.746094,-0.859375 H 42.771484 L 39.804688,24.761719 h 0.855468 c 0.56339,0 1.015625,-0.454189 1.015625,-1.017578 v -5.589844 c 0,-0.56339 -0.452235,-1.017578 -1.015625,-1.017578 z"
     id="rect863"
     inkscape:connector-curvature="0"
     sodipodi:nodetypes="sssscccssssssssccsssss" />
</svg>
